<svg width="420" height="190" viewBox="0 0 420 190" fill="none" xmlns="http://www.w3.org/2000/svg">
  <rect width="420" height="190" rx="18" fill="#0d1117"/>
  <rect x="1" y="1" width="418" height="188" rx="17" stroke="#30363d"/>
  <text x="26" y="38" fill="#f0f6fc" font-size="22" font-weight="700" font-family="Segoe UI, Arial">Activity Board</text>
  <text x="26" y="58" fill="#8b949e" font-size="13" font-family="Segoe UI, Arial">Profile visual, not a replacement for GitHub's real graph</text>
<rect x="26" y="72" width="10" height="10" rx="2" fill="#39d353" />
<rect x="39" y="72" width="10" height="10" rx="2" fill="#39d353" />
<rect x="52" y="72" width="10" height="10" rx="2" fill="#26a641" />
<rect x="65" y="72" width="10" height="10" rx="2" fill="#006d32" />
<rect x="78" y="72" width="10" height="10" rx="2" fill="#0e4429" />
<rect x="91" y="72" width="10" height="10" rx="2" fill="#161b22" />
<rect x="104" y="72" width="10" height="10" rx="2" fill="#39d353" />
<rect x="117" y="72" width="10" height="10" rx="2" fill="#26a641" />
<rect x="130" y="72" width="10" height="10" rx="2" fill="#006d32" />
<rect x="143" y="72" width="10" height="10" rx="2" fill="#39d353" />
<rect x="156" y="72" width="10" height="10" rx="2" fill="#161b22" />
<rect x="169" y="72" width="10" height="10" rx="2" fill="#39d353" />
<rect x="182" y="72" width="10" height="10" rx="2" fill="#26a641" />
<rect x="195" y="72" width="10" height="10" rx="2" fill="#006d32" />
<rect x="208" y="72" width="10" height="10" rx="2" fill="#0e4429" />
<rect x="221" y="72" width="10" height="10" rx="2" fill="#161b22" />
<rect x="234" y="72" width="10" height="10" rx="2" fill="#39d353" />
<rect x="247" y="72" width="10" height="10" rx="2" fill="#26a641" />
<rect x="260" y="72" width="10" height="10" rx="2" fill="#39d353" />
<rect x="273" y="72" width="10" height="10" rx="2" fill="#0e4429" />
<rect x="286" y="72" width="10" height="10" rx="2" fill="#161b22" />
<rect x="299" y="72" width="10" height="10" rx="2" fill="#39d353" />
<rect x="312" y="72" width="10" height="10" rx="2" fill="#26a641" />
<rect x="325" y="72" width="10" height="10" rx="2" fill="#006d32" />
<rect x="338" y="72" width="10" height="10" rx="2" fill="#0e4429" />
<rect x="351" y="72" width="10" height="10" rx="2" fill="#161b22" />
<rect x="364" y="72" width="10" height="10" rx="2" fill="#39d353" />
<rect x="377" y="72" width="10" height="10" rx="2" fill="#39d353" />
<rect x="26" y="85" width="10" height="10" rx="2" fill="#26a641" />
<rect x="39" y="85" width="10" height="10" rx="2" fill="#006d32" />
<rect x="52" y="85" width="10" height="10" rx="2" fill="#0e4429" />
<rect x="65" y="85" width="10" height="10" rx="2" fill="#161b22" />
<rect x="78" y="85" width="10" height="10" rx="2" fill="#39d353" />
<rect x="91" y="85" width="10" height="10" rx="2" fill="#26a641" />
<rect x="104" y="85" width="10" height="10" rx="2" fill="#006d32" />
<rect x="117" y="85" width="10" height="10" rx="2" fill="#0e4429" />
<rect x="130" y="85" width="10" height="10" rx="2" fill="#161b22" />
<rect x="143" y="85" width="10" height="10" rx="2" fill="#39d353" />
<rect x="156" y="85" width="10" height="10" rx="2" fill="#26a641" />
<rect x="169" y="85" width="10" height="10" rx="2" fill="#006d32" />
<rect x="182" y="85" width="10" height="10" rx="2" fill="#0e4429" />
<rect x="195" y="85" width="10" height="10" rx="2" fill="#161b22" />
<rect x="208" y="85" width="10" height="10" rx="2" fill="#39d353" />
<rect x="221" y="85" width="10" height="10" rx="2" fill="#26a641" />
<rect x="234" y="85" width="10" height="10" rx="2" fill="#006d32" />
<rect x="247" y="85" width="10" height="10" rx="2" fill="#0e4429" />
<rect x="260" y="85" width="10" height="10" rx="2" fill="#161b22" />
<rect x="273" y="85" width="10" height="10" rx="2" fill="#39d353" />
<rect x="286" y="85" width="10" height="10" rx="2" fill="#26a641" />
<rect x="299" y="85" width="10" height="10" rx="2" fill="#006d32" />
<rect x="312" y="85" width="10" height="10" rx="2" fill="#0e4429" />
<rect x="325" y="85" width="10" height="10" rx="2" fill="#161b22" />
<rect x="338" y="85" width="10" height="10" rx="2" fill="#39d353" />
<rect x="351" y="85" width="10" height="10" rx="2" fill="#26a641" />
<rect x="364" y="85" width="10" height="10" rx="2" fill="#006d32" />
<rect x="377" y="85" width="10" height="10" rx="2" fill="#0e4429" />
<rect x="26" y="98" width="10" height="10" rx="2" fill="#0e4429" />
<rect x="39" y="98" width="10" height="10" rx="2" fill="#161b22" />
<rect x="52" y="98" width="10" height="10" rx="2" fill="#39d353" />
<rect x="65" y="98" width="10" height="10" rx="2" fill="#26a641" />
<rect x="78" y="98" width="10" height="10" rx="2" fill="#006d32" />
<rect x="91" y="98" width="10" height="10" rx="2" fill="#0e4429" />
<rect x="104" y="98" width="10" height="10" rx="2" fill="#161b22" />
<rect x="117" y="98" width="10" height="10" rx="2" fill="#39d353" />
<rect x="130" y="98" width="10" height="10" rx="2" fill="#26a641" />
<rect x="143" y="98" width="10" height="10" rx="2" fill="#006d32" />
<rect x="156" y="98" width="10" height="10" rx="2" fill="#0e4429" />
<rect x="169" y="98" width="10" height="10" rx="2" fill="#161b22" />
<rect x="182" y="98" width="10" height="10" rx="2" fill="#39d353" />
<rect x="195" y="98" width="10" height="10" rx="2" fill="#26a641" />
<rect x="208" y="98" width="10" height="10" rx="2" fill="#006d32" />
<rect x="221" y="98" width="10" height="10" rx="2" fill="#0e4429" />
<rect x="234" y="98" width="10" height="10" rx="2" fill="#161b22" />
<rect x="247" y="98" width="10" height="10" rx="2" fill="#39d353" />
<rect x="260" y="98" width="10" height="10" rx="2" fill="#26a641" />
<rect x="273" y="98" width="10" height="10" rx="2" fill="#006d32" />
<rect x="286" y="98" width="10" height="10" rx="2" fill="#0e4429" />
<rect x="299" y="98" width="10" height="10" rx="2" fill="#161b22" />
<rect x="312" y="98" width="10" height="10" rx="2" fill="#39d353" />
<rect x="325" y="98" width="10" height="10" rx="2" fill="#26a641" />
<rect x="338" y="98" width="10" height="10" rx="2" fill="#006d32" />
<rect x="351" y="98" width="10" height="10" rx="2" fill="#0e4429" />
<rect x="364" y="98" width="10" height="10" rx="2" fill="#161b22" />
<rect x="377" y="98" width="10" height="10" rx="2" fill="#39d353" />
<rect x="26" y="111" width="10" height="10" rx="2" fill="#39d353" />
<rect x="39" y="111" width="10" height="10" rx="2" fill="#26a641" />
<rect x="52" y="111" width="10" height="10" rx="2" fill="#006d32" />
<rect x="65" y="111" width="10" height="10" rx="2" fill="#0e4429" />
<rect x="78" y="111" width="10" height="10" rx="2" fill="#161b22" />
<rect x="91" y="111" width="10" height="10" rx="2" fill="#39d353" />
<rect x="104" y="111" width="10" height="10" rx="2" fill="#26a641" />
<rect x="117" y="111" width="10" height="10" rx="2" fill="#006d32" />
<rect x="130" y="111" width="10" height="10" rx="2" fill="#0e4429" />
<rect x="143" y="111" width="10" height="10" rx="2" fill="#39d353" />
<rect x="156" y="111" width="10" height="10" rx="2" fill="#39d353" />
<rect x="169" y="111" width="10" height="10" rx="2" fill="#26a641" />
<rect x="182" y="111" width="10" height="10" rx="2" fill="#006d32" />
<rect x="195" y="111" width="10" height="10" rx="2" fill="#0e4429" />
<rect x="208" y="111" width="10" height="10" rx="2" fill="#161b22" />
<rect x="221" y="111" width="10" height="10" rx="2" fill="#39d353" />
<rect x="234" y="111" width="10" height="10" rx="2" fill="#26a641" />
<rect x="247" y="111" width="10" height="10" rx="2" fill="#006d32" />
<rect x="260" y="111" width="10" height="10" rx="2" fill="#39d353" />
<rect x="273" y="111" width="10" height="10" rx="2" fill="#161b22" />
<rect x="286" y="111" width="10" height="10" rx="2" fill="#39d353" />
<rect x="299" y="111" width="10" height="10" rx="2" fill="#26a641" />
<rect x="312" y="111" width="10" height="10" rx="2" fill="#006d32" />
<rect x="325" y="111" width="10" height="10" rx="2" fill="#0e4429" />
<rect x="338" y="111" width="10" height="10" rx="2" fill="#161b22" />
<rect x="351" y="111" width="10" height="10" rx="2" fill="#39d353" />
<rect x="364" y="111" width="10" height="10" rx="2" fill="#26a641" />
<rect x="377" y="111" width="10" height="10" rx="2" fill="#39d353" />
<rect x="26" y="124" width="10" height="10" rx="2" fill="#006d32" />
<rect x="39" y="124" width="10" height="10" rx="2" fill="#0e4429" />
<rect x="52" y="124" width="10" height="10" rx="2" fill="#161b22" />
<rect x="65" y="124" width="10" height="10" rx="2" fill="#39d353" />
<rect x="78" y="124" width="10" height="10" rx="2" fill="#26a641" />
<rect x="91" y="124" width="10" height="10" rx="2" fill="#006d32" />
<rect x="104" y="124" width="10" height="10" rx="2" fill="#0e4429" />
<rect x="117" y="124" width="10" height="10" rx="2" fill="#161b22" />
<rect x="130" y="124" width="10" height="10" rx="2" fill="#39d353" />
<rect x="143" y="124" width="10" height="10" rx="2" fill="#26a641" />
<rect x="156" y="124" width="10" height="10" rx="2" fill="#006d32" />
<rect x="169" y="124" width="10" height="10" rx="2" fill="#0e4429" />
<rect x="182" y="124" width="10" height="10" rx="2" fill="#161b22" />
<rect x="195" y="124" width="10" height="10" rx="2" fill="#39d353" />
<rect x="208" y="124" width="10" height="10" rx="2" fill="#26a641" />
<rect x="221" y="124" width="10" height="10" rx="2" fill="#006d32" />
<rect x="234" y="124" width="10" height="10" rx="2" fill="#0e4429" />
<rect x="247" y="124" width="10" height="10" rx="2" fill="#161b22" />
<rect x="260" y="124" width="10" height="10" rx="2" fill="#39d353" />
<rect x="273" y="124" width="10" height="10" rx="2" fill="#26a641" />
<rect x="286" y="124" width="10" height="10" rx="2" fill="#006d32" />
<rect x="299" y="124" width="10" height="10" rx="2" fill="#0e4429" />
<rect x="312" y="124" width="10" height="10" rx="2" fill="#161b22" />
<rect x="325" y="124" width="10" height="10" rx="2" fill="#39d353" />
<rect x="338" y="124" width="10" height="10" rx="2" fill="#26a641" />
<rect x="351" y="124" width="10" height="10" rx="2" fill="#006d32" />
<rect x="364" y="124" width="10" height="10" rx="2" fill="#0e4429" />
<rect x="377" y="124" width="10" height="10" rx="2" fill="#161b22" />
<rect x="26" y="137" width="10" height="10" rx="2" fill="#161b22" />
<rect x="39" y="137" width="10" height="10" rx="2" fill="#39d353" />
<rect x="52" y="137" width="10" height="10" rx="2" fill="#26a641" />
<rect x="65" y="137" width="10" height="10" rx="2" fill="#006d32" />
<rect x="78" y="137" width="10" height="10" rx="2" fill="#0e4429" />
<rect x="91" y="137" width="10" height="10" rx="2" fill="#161b22" />
<rect x="104" y="137" width="10" height="10" rx="2" fill="#39d353" />
<rect x="117" y="137" width="10" height="10" rx="2" fill="#26a641" />
<rect x="130" y="137" width="10" height="10" rx="2" fill="#006d32" />
<rect x="143" y="137" width="10" height="10" rx="2" fill="#0e4429" />
<rect x="156" y="137" width="10" height="10" rx="2" fill="#161b22" />
<rect x="169" y="137" width="10" height="10" rx="2" fill="#39d353" />
<rect x="182" y="137" width="10" height="10" rx="2" fill="#26a641" />
<rect x="195" y="137" width="10" height="10" rx="2" fill="#006d32" />
<rect x="208" y="137" width="10" height="10" rx="2" fill="#0e4429" />
<rect x="221" y="137" width="10" height="10" rx="2" fill="#161b22" />
<rect x="234" y="137" width="10" height="10" rx="2" fill="#39d353" />
<rect x="247" y="137" width="10" height="10" rx="2" fill="#26a641" />
<rect x="260" y="137" width="10" height="10" rx="2" fill="#006d32" />
<rect x="273" y="137" width="10" height="10" rx="2" fill="#0e4429" />
<rect x="286" y="137" width="10" height="10" rx="2" fill="#161b22" />
<rect x="299" y="137" width="10" height="10" rx="2" fill="#39d353" />
<rect x="312" y="137" width="10" height="10" rx="2" fill="#26a641" />
<rect x="325" y="137" width="10" height="10" rx="2" fill="#006d32" />
<rect x="338" y="137" width="10" height="10" rx="2" fill="#0e4429" />
<rect x="351" y="137" width="10" height="10" rx="2" fill="#161b22" />
<rect x="364" y="137" width="10" height="10" rx="2" fill="#39d353" />
<rect x="377" y="137" width="10" height="10" rx="2" fill="#26a641" />
<rect x="26" y="150" width="10" height="10" rx="2" fill="#39d353" />
<rect x="39" y="150" width="10" height="10" rx="2" fill="#006d32" />
<rect x="52" y="150" width="10" height="10" rx="2" fill="#0e4429" />
<rect x="65" y="150" width="10" height="10" rx="2" fill="#161b22" />
<rect x="78" y="150" width="10" height="10" rx="2" fill="#39d353" />
<rect x="91" y="150" width="10" height="10" rx="2" fill="#26a641" />
<rect x="104" y="150" width="10" height="10" rx="2" fill="#006d32" />
<rect x="117" y="150" width="10" height="10" rx="2" fill="#0e4429" />
<rect x="130" y="150" width="10" height="10" rx="2" fill="#161b22" />
<rect x="143" y="150" width="10" height="10" rx="2" fill="#39d353" />
<rect x="156" y="150" width="10" height="10" rx="2" fill="#26a641" />
<rect x="169" y="150" width="10" height="10" rx="2" fill="#006d32" />
<rect x="182" y="150" width="10" height="10" rx="2" fill="#0e4429" />
<rect x="195" y="150" width="10" height="10" rx="2" fill="#161b22" />
<rect x="208" y="150" width="10" height="10" rx="2" fill="#39d353" />
<rect x="221" y="150" width="10" height="10" rx="2" fill="#26a641" />
<rect x="234" y="150" width="10" height="10" rx="2" fill="#006d32" />
<rect x="247" y="150" width="10" height="10" rx="2" fill="#0e4429" />
<rect x="260" y="150" width="10" height="10" rx="2" fill="#39d353" />
<rect x="273" y="150" width="10" height="10" rx="2" fill="#39d353" />
<rect x="286" y="150" width="10" height="10" rx="2" fill="#26a641" />
<rect x="299" y="150" width="10" height="10" rx="2" fill="#006d32" />
<rect x="312" y="150" width="10" height="10" rx="2" fill="#0e4429" />
<rect x="325" y="150" width="10" height="10" rx="2" fill="#161b22" />
<rect x="338" y="150" width="10" height="10" rx="2" fill="#39d353" />
<rect x="351" y="150" width="10" height="10" rx="2" fill="#26a641" />
<rect x="364" y="150" width="10" height="10" rx="2" fill="#006d32" />
<rect x="377" y="150" width="10" height="10" rx="2" fill="#39d353" />

  <text x="26" y="174" fill="#8b949e" font-size="12" font-family="Segoe UI, Arial">less</text>
  <rect x="58" y="164" width="10" height="10" rx="2" fill="#161b22" />
  <rect x="72" y="164" width="10" height="10" rx="2" fill="#0e4429" />
  <rect x="86" y="164" width="10" height="10" rx="2" fill="#006d32" />
  <rect x="100" y="164" width="10" height="10" rx="2" fill="#26a641" />
  <rect x="114" y="164" width="10" height="10" rx="2" fill="#39d353" />
  <text x="132" y="174" fill="#8b949e" font-size="12" font-family="Segoe UI, Arial">more</text>
</svg>